<mxfile host="65bd71144e">
    <diagram id="ZcGvJUHu1ihtSKRGtC8W" name="Page-1">
        <mxGraphModel dx="997" dy="395" grid="1" gridSize="10" guides="1" tooltips="1" connect="1" arrows="1" fold="1" page="1" pageScale="1" pageWidth="850" pageHeight="1100" math="0" shadow="0">
            <root>
                <mxCell id="0"/>
                <mxCell id="1" parent="0"/>
                <mxCell id="5" value="" style="edgeStyle=none;html=1;" parent="1" source="2" target="4" edge="1">
                    <mxGeometry relative="1" as="geometry">
                        <Array as="points">
                            <mxPoint x="270" y="110"/>
                            <mxPoint x="270" y="120"/>
                            <mxPoint x="250" y="140"/>
                        </Array>
                    </mxGeometry>
                </mxCell>
                <mxCell id="9" value="" style="edgeStyle=none;html=1;" parent="1" source="2" target="8" edge="1">
                    <mxGeometry relative="1" as="geometry">
                        <Array as="points"/>
                    </mxGeometry>
                </mxCell>
                <mxCell id="11" style="edgeStyle=none;html=1;exitX=0.75;exitY=1;exitDx=0;exitDy=0;entryX=0.567;entryY=0.014;entryDx=0;entryDy=0;entryPerimeter=0;" parent="1" source="2" target="10" edge="1">
                    <mxGeometry relative="1" as="geometry">
                        <Array as="points">
                            <mxPoint x="470" y="130"/>
                        </Array>
                    </mxGeometry>
                </mxCell>
                <mxCell id="13" style="edgeStyle=none;html=1;entryX=0.5;entryY=0;entryDx=0;entryDy=0;" parent="1" source="2" target="12" edge="1">
                    <mxGeometry relative="1" as="geometry"/>
                </mxCell>
                <mxCell id="16" style="edgeStyle=none;html=1;exitX=0;exitY=1;exitDx=0;exitDy=0;entryX=0.5;entryY=0;entryDx=0;entryDy=0;" parent="1" source="2" target="15" edge="1">
                    <mxGeometry relative="1" as="geometry"/>
                </mxCell>
                <mxCell id="2" value="ROCK PAPER SCISSORS GAME" style="rounded=1;whiteSpace=wrap;html=1;" parent="1" vertex="1">
                    <mxGeometry x="245" y="40" width="240" height="60" as="geometry"/>
                </mxCell>
                <mxCell id="3" value="BREAKDOWN" style="text;html=1;strokeColor=none;fillColor=none;align=center;verticalAlign=middle;whiteSpace=wrap;rounded=0;" parent="1" vertex="1">
                    <mxGeometry x="70" y="10" width="60" height="30" as="geometry"/>
                </mxCell>
                <mxCell id="7" value="" style="edgeStyle=none;html=1;" parent="1" source="4" target="6" edge="1">
                    <mxGeometry relative="1" as="geometry"/>
                </mxCell>
                <mxCell id="4" value="MAKE A PLAYER" style="whiteSpace=wrap;html=1;rounded=1;" parent="1" vertex="1">
                    <mxGeometry x="125" y="160" width="120" height="60" as="geometry"/>
                </mxCell>
                <mxCell id="6" value="SCORE, NAME" style="whiteSpace=wrap;html=1;rounded=1;" parent="1" vertex="1">
                    <mxGeometry x="125" y="250" width="120" height="60" as="geometry"/>
                </mxCell>
                <mxCell id="8" value="CHOOSE A WEAPON" style="rounded=1;whiteSpace=wrap;html=1;" parent="1" vertex="1">
                    <mxGeometry x="270" y="160" width="120" height="60" as="geometry"/>
                </mxCell>
                <mxCell id="22" value="" style="edgeStyle=none;html=1;" parent="1" source="10" target="21" edge="1">
                    <mxGeometry relative="1" as="geometry"/>
                </mxCell>
                <mxCell id="10" value="LOGIC TO COMPARE WEAPONS" style="rounded=0;whiteSpace=wrap;html=1;" parent="1" vertex="1">
                    <mxGeometry x="410" y="160" width="120" height="60" as="geometry"/>
                </mxCell>
                <mxCell id="12" value="OUTCOME/RESULT" style="rounded=0;whiteSpace=wrap;html=1;" parent="1" vertex="1">
                    <mxGeometry x="550" y="160" width="120" height="60" as="geometry"/>
                </mxCell>
                <mxCell id="15" value="GAME INITIATED" style="rounded=0;whiteSpace=wrap;html=1;" parent="1" vertex="1">
                    <mxGeometry y="160" width="120" height="60" as="geometry"/>
                </mxCell>
                <mxCell id="18" value="" style="edgeStyle=none;html=1;" parent="1" source="17" target="15" edge="1">
                    <mxGeometry relative="1" as="geometry"/>
                </mxCell>
                <mxCell id="17" value="GAME OBJECT" style="rounded=0;whiteSpace=wrap;html=1;" parent="1" vertex="1">
                    <mxGeometry y="250" width="120" height="60" as="geometry"/>
                </mxCell>
                <mxCell id="19" value="DISPLAY MESSAGES" style="whiteSpace=wrap;html=1;rounded=0;" parent="1" vertex="1">
                    <mxGeometry x="125" y="330" width="120" height="60" as="geometry"/>
                </mxCell>
                <mxCell id="20" value="CONTROL FLOW" style="rounded=0;whiteSpace=wrap;html=1;" parent="1" vertex="1">
                    <mxGeometry y="330" width="120" height="60" as="geometry"/>
                </mxCell>
                <mxCell id="21" value="LOGIC TO COMPARE WEAPONS" style="rounded=0;whiteSpace=wrap;html=1;" parent="1" vertex="1">
                    <mxGeometry x="410" y="250" width="120" height="60" as="geometry"/>
                </mxCell>
                <mxCell id="25" value="PREDETERMINED SELETION" style="rounded=0;whiteSpace=wrap;html=1;" parent="1" vertex="1">
                    <mxGeometry x="270" y="330" width="120" height="60" as="geometry"/>
                </mxCell>
                <mxCell id="v2BpHYBmrJRRmWHZoQOw-27" value="" style="edgeStyle=none;html=1;" parent="1" source="v2BpHYBmrJRRmWHZoQOw-25" target="v2BpHYBmrJRRmWHZoQOw-26" edge="1">
                    <mxGeometry relative="1" as="geometry"/>
                </mxCell>
                <mxCell id="v2BpHYBmrJRRmWHZoQOw-25" value="Game Initiated" style="rounded=0;whiteSpace=wrap;html=1;" parent="1" vertex="1">
                    <mxGeometry x="230" y="470" width="120" height="60" as="geometry"/>
                </mxCell>
                <mxCell id="v2BpHYBmrJRRmWHZoQOw-31" value="" style="edgeStyle=none;html=1;" parent="1" source="v2BpHYBmrJRRmWHZoQOw-26" target="v2BpHYBmrJRRmWHZoQOw-30" edge="1">
                    <mxGeometry relative="1" as="geometry"/>
                </mxCell>
                <mxCell id="v2BpHYBmrJRRmWHZoQOw-26" value="Enter Player Name" style="whiteSpace=wrap;html=1;rounded=0;" parent="1" vertex="1">
                    <mxGeometry x="230" y="590" width="120" height="60" as="geometry"/>
                </mxCell>
                <mxCell id="v2BpHYBmrJRRmWHZoQOw-33" value="" style="edgeStyle=none;html=1;" parent="1" source="v2BpHYBmrJRRmWHZoQOw-30" target="v2BpHYBmrJRRmWHZoQOw-32" edge="1">
                    <mxGeometry relative="1" as="geometry"/>
                </mxCell>
                <mxCell id="v2BpHYBmrJRRmWHZoQOw-35" value="" style="edgeStyle=none;html=1;" parent="1" source="v2BpHYBmrJRRmWHZoQOw-30" target="v2BpHYBmrJRRmWHZoQOw-34" edge="1">
                    <mxGeometry relative="1" as="geometry"/>
                </mxCell>
                <mxCell id="v2BpHYBmrJRRmWHZoQOw-37" value="" style="edgeStyle=none;html=1;" parent="1" source="v2BpHYBmrJRRmWHZoQOw-30" target="v2BpHYBmrJRRmWHZoQOw-36" edge="1">
                    <mxGeometry relative="1" as="geometry"/>
                </mxCell>
                <mxCell id="v2BpHYBmrJRRmWHZoQOw-30" value="Comp VS Human" style="rhombus;whiteSpace=wrap;html=1;rounded=0;" parent="1" vertex="1">
                    <mxGeometry x="250" y="720" width="80" height="80" as="geometry"/>
                </mxCell>
                <mxCell id="v2BpHYBmrJRRmWHZoQOw-54" style="edgeStyle=none;html=1;exitX=0;exitY=0.75;exitDx=0;exitDy=0;entryX=0.84;entryY=0.66;entryDx=0;entryDy=0;entryPerimeter=0;" parent="1" source="v2BpHYBmrJRRmWHZoQOw-32" target="v2BpHYBmrJRRmWHZoQOw-30" edge="1">
                    <mxGeometry relative="1" as="geometry"/>
                </mxCell>
                <mxCell id="v2BpHYBmrJRRmWHZoQOw-32" value="Computer Object Generated" style="whiteSpace=wrap;html=1;rounded=0;" parent="1" vertex="1">
                    <mxGeometry x="390" y="730" width="120" height="60" as="geometry"/>
                </mxCell>
                <mxCell id="v2BpHYBmrJRRmWHZoQOw-55" style="edgeStyle=none;html=1;exitX=1;exitY=0.75;exitDx=0;exitDy=0;entryX=0.11;entryY=0.69;entryDx=0;entryDy=0;entryPerimeter=0;" parent="1" source="v2BpHYBmrJRRmWHZoQOw-34" target="v2BpHYBmrJRRmWHZoQOw-30" edge="1">
                    <mxGeometry relative="1" as="geometry"/>
                </mxCell>
                <mxCell id="v2BpHYBmrJRRmWHZoQOw-34" value="Player 2 Enter Name" style="whiteSpace=wrap;html=1;rounded=0;" parent="1" vertex="1">
                    <mxGeometry x="70" y="730" width="120" height="60" as="geometry"/>
                </mxCell>
                <mxCell id="v2BpHYBmrJRRmWHZoQOw-39" value="" style="edgeStyle=none;html=1;" parent="1" source="v2BpHYBmrJRRmWHZoQOw-36" target="v2BpHYBmrJRRmWHZoQOw-38" edge="1">
                    <mxGeometry relative="1" as="geometry"/>
                </mxCell>
                <mxCell id="v2BpHYBmrJRRmWHZoQOw-36" value="Target Score Selected" style="whiteSpace=wrap;html=1;rounded=0;" parent="1" vertex="1">
                    <mxGeometry x="230" y="830" width="120" height="60" as="geometry"/>
                </mxCell>
                <mxCell id="v2BpHYBmrJRRmWHZoQOw-41" value="" style="edgeStyle=none;html=1;" parent="1" source="v2BpHYBmrJRRmWHZoQOw-38" target="v2BpHYBmrJRRmWHZoQOw-40" edge="1">
                    <mxGeometry relative="1" as="geometry"/>
                </mxCell>
                <mxCell id="v2BpHYBmrJRRmWHZoQOw-38" value="Select Weapons" style="whiteSpace=wrap;html=1;rounded=0;" parent="1" vertex="1">
                    <mxGeometry x="230" y="910" width="120" height="60" as="geometry"/>
                </mxCell>
                <mxCell id="v2BpHYBmrJRRmWHZoQOw-42" style="edgeStyle=none;html=1;exitX=0;exitY=0.5;exitDx=0;exitDy=0;entryX=0;entryY=0.5;entryDx=0;entryDy=0;" parent="1" source="v2BpHYBmrJRRmWHZoQOw-40" target="v2BpHYBmrJRRmWHZoQOw-38" edge="1">
                    <mxGeometry relative="1" as="geometry">
                        <mxPoint x="400" y="950" as="targetPoint"/>
                        <Array as="points">
                            <mxPoint x="130" y="1020"/>
                            <mxPoint x="130" y="980"/>
                            <mxPoint x="130" y="940"/>
                        </Array>
                    </mxGeometry>
                </mxCell>
                <mxCell id="v2BpHYBmrJRRmWHZoQOw-44" value="" style="edgeStyle=none;html=1;" parent="1" source="v2BpHYBmrJRRmWHZoQOw-40" target="v2BpHYBmrJRRmWHZoQOw-43" edge="1">
                    <mxGeometry relative="1" as="geometry"/>
                </mxCell>
                <mxCell id="v2BpHYBmrJRRmWHZoQOw-40" value="Check if Weapons Valid" style="whiteSpace=wrap;html=1;rounded=0;" parent="1" vertex="1">
                    <mxGeometry x="230" y="990" width="120" height="60" as="geometry"/>
                </mxCell>
                <mxCell id="v2BpHYBmrJRRmWHZoQOw-46" style="edgeStyle=none;html=1;exitX=0.5;exitY=1;exitDx=0;exitDy=0;entryX=0.5;entryY=0;entryDx=0;entryDy=0;" parent="1" source="v2BpHYBmrJRRmWHZoQOw-43" target="v2BpHYBmrJRRmWHZoQOw-45" edge="1">
                    <mxGeometry relative="1" as="geometry"/>
                </mxCell>
                <mxCell id="v2BpHYBmrJRRmWHZoQOw-43" value="Determine Round WInner" style="whiteSpace=wrap;html=1;rounded=0;" parent="1" vertex="1">
                    <mxGeometry x="230" y="1070" width="120" height="60" as="geometry"/>
                </mxCell>
                <mxCell id="v2BpHYBmrJRRmWHZoQOw-50" value="" style="edgeStyle=none;html=1;" parent="1" source="v2BpHYBmrJRRmWHZoQOw-45" target="v2BpHYBmrJRRmWHZoQOw-49" edge="1">
                    <mxGeometry relative="1" as="geometry"/>
                </mxCell>
                <mxCell id="v2BpHYBmrJRRmWHZoQOw-45" value="Increment Scores" style="rounded=0;whiteSpace=wrap;html=1;" parent="1" vertex="1">
                    <mxGeometry x="230" y="1150" width="120" height="60" as="geometry"/>
                </mxCell>
                <mxCell id="v2BpHYBmrJRRmWHZoQOw-51" style="edgeStyle=none;html=1;exitX=1;exitY=0.5;exitDx=0;exitDy=0;entryX=1;entryY=0;entryDx=0;entryDy=0;" parent="1" source="v2BpHYBmrJRRmWHZoQOw-49" target="v2BpHYBmrJRRmWHZoQOw-38" edge="1">
                    <mxGeometry relative="1" as="geometry">
                        <mxPoint x="500" y="920" as="targetPoint"/>
                        <Array as="points">
                            <mxPoint x="500" y="1295"/>
                            <mxPoint x="500" y="910"/>
                        </Array>
                    </mxGeometry>
                </mxCell>
                <mxCell id="v2BpHYBmrJRRmWHZoQOw-53" value="" style="edgeStyle=none;html=1;" parent="1" source="v2BpHYBmrJRRmWHZoQOw-49" target="v2BpHYBmrJRRmWHZoQOw-52" edge="1">
                    <mxGeometry relative="1" as="geometry"/>
                </mxCell>
                <mxCell id="v2BpHYBmrJRRmWHZoQOw-49" value="Has Target &lt;br&gt;Score Been &lt;br&gt;Reached" style="rhombus;whiteSpace=wrap;html=1;rounded=0;" parent="1" vertex="1">
                    <mxGeometry x="222.5" y="1230" width="135" height="130" as="geometry"/>
                </mxCell>
                <mxCell id="v2BpHYBmrJRRmWHZoQOw-52" value="DISPLAY WINNER/ END GAME" style="ellipse;whiteSpace=wrap;html=1;rounded=0;" parent="1" vertex="1">
                    <mxGeometry x="250" y="1380" width="80" height="80" as="geometry"/>
                </mxCell>
                <mxCell id="8NhWLOOnSv1Sv5JN1Mes-25" value="ISERFLOW" style="text;html=1;strokeColor=none;fillColor=none;align=center;verticalAlign=middle;whiteSpace=wrap;rounded=0;" parent="1" vertex="1">
                    <mxGeometry x="50" y="430" width="80" height="30" as="geometry"/>
                </mxCell>
            </root>
        </mxGraphModel>
    </diagram>
    <diagram id="jpIlh0CkZzxhvhZH3wDt" name="Page-2">
        <mxGraphModel dx="997" dy="395" grid="1" gridSize="10" guides="1" tooltips="1" connect="1" arrows="1" fold="1" page="1" pageScale="1" pageWidth="850" pageHeight="1100" math="0" shadow="0">
            <root>
                <mxCell id="0"/>
                <mxCell id="1" parent="0"/>
                <mxCell id="9Bya7oSWs17dNcXOkH0w-5" value="" style="edgeStyle=none;html=1;" parent="1" source="9Bya7oSWs17dNcXOkH0w-1" target="9Bya7oSWs17dNcXOkH0w-2" edge="1">
                    <mxGeometry relative="1" as="geometry"/>
                </mxCell>
                <mxCell id="9Bya7oSWs17dNcXOkH0w-1" value="Game Object" style="rounded=0;whiteSpace=wrap;html=1;" parent="1" vertex="1">
                    <mxGeometry x="80" y="40" width="120" height="60" as="geometry"/>
                </mxCell>
                <mxCell id="9Bya7oSWs17dNcXOkH0w-7" value="" style="edgeStyle=none;html=1;" parent="1" source="9Bya7oSWs17dNcXOkH0w-2" target="9Bya7oSWs17dNcXOkH0w-3" edge="1">
                    <mxGeometry relative="1" as="geometry"/>
                </mxCell>
                <mxCell id="9Bya7oSWs17dNcXOkH0w-2" value="tPlayer Object" style="whiteSpace=wrap;html=1;rounded=0;" parent="1" vertex="1">
                    <mxGeometry x="80" y="130" width="120" height="60" as="geometry"/>
                </mxCell>
                <mxCell id="9Bya7oSWs17dNcXOkH0w-8" value="" style="edgeStyle=none;html=1;" parent="1" source="9Bya7oSWs17dNcXOkH0w-3" target="9Bya7oSWs17dNcXOkH0w-4" edge="1">
                    <mxGeometry relative="1" as="geometry"/>
                </mxCell>
                <mxCell id="9Bya7oSWs17dNcXOkH0w-3" value="CHoose Weapon" style="rounded=0;whiteSpace=wrap;html=1;" parent="1" vertex="1">
                    <mxGeometry x="80" y="220" width="120" height="60" as="geometry"/>
                </mxCell>
                <mxCell id="9Bya7oSWs17dNcXOkH0w-4" value="Log Weapon to Apert" style="rounded=0;whiteSpace=wrap;html=1;" parent="1" vertex="1">
                    <mxGeometry x="80" y="310" width="120" height="60" as="geometry"/>
                </mxCell>
                <mxCell id="9Bya7oSWs17dNcXOkH0w-9" value="SPRINT 1" style="text;html=1;strokeColor=none;fillColor=none;align=center;verticalAlign=middle;whiteSpace=wrap;rounded=0;" parent="1" vertex="1">
                    <mxGeometry x="110" width="60" height="30" as="geometry"/>
                </mxCell>
                <mxCell id="9Bya7oSWs17dNcXOkH0w-10" value="SPRINT 2" style="text;html=1;strokeColor=none;fillColor=none;align=center;verticalAlign=middle;whiteSpace=wrap;rounded=0;" parent="1" vertex="1">
                    <mxGeometry x="280" width="60" height="30" as="geometry"/>
                </mxCell>
                <mxCell id="9Bya7oSWs17dNcXOkH0w-15" value="" style="edgeStyle=none;html=1;" parent="1" edge="1">
                    <mxGeometry relative="1" as="geometry">
                        <mxPoint x="310" y="130" as="targetPoint"/>
                    </mxGeometry>
                </mxCell>
                <mxCell id="9Bya7oSWs17dNcXOkH0w-16" value="" style="edgeStyle=none;html=1;" parent="1" edge="1">
                    <mxGeometry relative="1" as="geometry">
                        <mxPoint x="310" y="220" as="targetPoint"/>
                    </mxGeometry>
                </mxCell>
                <mxCell id="9Bya7oSWs17dNcXOkH0w-17" value="" style="edgeStyle=none;html=1;" parent="1" edge="1">
                    <mxGeometry relative="1" as="geometry">
                        <mxPoint x="310" y="310" as="targetPoint"/>
                    </mxGeometry>
                </mxCell>
                <mxCell id="wEtQUpklAVbWecadVvYD-5" value="" style="edgeStyle=none;html=1;" parent="1" source="wEtQUpklAVbWecadVvYD-1" target="wEtQUpklAVbWecadVvYD-2" edge="1">
                    <mxGeometry relative="1" as="geometry"/>
                </mxCell>
                <mxCell id="wEtQUpklAVbWecadVvYD-1" value="Logic To Determine WInner" style="rounded=0;whiteSpace=wrap;html=1;" parent="1" vertex="1">
                    <mxGeometry x="250" y="40" width="120" height="60" as="geometry"/>
                </mxCell>
                <mxCell id="wEtQUpklAVbWecadVvYD-6" value="" style="edgeStyle=none;html=1;" parent="1" source="wEtQUpklAVbWecadVvYD-2" target="wEtQUpklAVbWecadVvYD-3" edge="1">
                    <mxGeometry relative="1" as="geometry"/>
                </mxCell>
                <mxCell id="wEtQUpklAVbWecadVvYD-2" value="Alert Result" style="rounded=0;whiteSpace=wrap;html=1;" parent="1" vertex="1">
                    <mxGeometry x="250" y="130" width="120" height="60" as="geometry"/>
                </mxCell>
                <mxCell id="wEtQUpklAVbWecadVvYD-7" value="" style="edgeStyle=none;html=1;" parent="1" source="wEtQUpklAVbWecadVvYD-3" target="wEtQUpklAVbWecadVvYD-4" edge="1">
                    <mxGeometry relative="1" as="geometry"/>
                </mxCell>
                <mxCell id="wEtQUpklAVbWecadVvYD-3" value="Add 2nd Player" style="rounded=0;whiteSpace=wrap;html=1;" parent="1" vertex="1">
                    <mxGeometry x="250" y="220" width="120" height="60" as="geometry"/>
                </mxCell>
                <mxCell id="wEtQUpklAVbWecadVvYD-9" value="" style="edgeStyle=none;html=1;" parent="1" source="wEtQUpklAVbWecadVvYD-4" target="wEtQUpklAVbWecadVvYD-8" edge="1">
                    <mxGeometry relative="1" as="geometry"/>
                </mxCell>
                <mxCell id="wEtQUpklAVbWecadVvYD-4" value="Add a FIght Function" style="rounded=0;whiteSpace=wrap;html=1;" parent="1" vertex="1">
                    <mxGeometry x="250" y="310" width="120" height="60" as="geometry"/>
                </mxCell>
                <mxCell id="wEtQUpklAVbWecadVvYD-8" value="Show Winner" style="whiteSpace=wrap;html=1;rounded=0;" parent="1" vertex="1">
                    <mxGeometry x="250" y="400" width="120" height="60" as="geometry"/>
                </mxCell>
                <mxCell id="wEtQUpklAVbWecadVvYD-10" value="SPRINT 3" style="text;html=1;strokeColor=none;fillColor=none;align=center;verticalAlign=middle;whiteSpace=wrap;rounded=0;" parent="1" vertex="1">
                    <mxGeometry x="440" width="60" height="30" as="geometry"/>
                </mxCell>
                <mxCell id="wEtQUpklAVbWecadVvYD-16" value="" style="edgeStyle=none;html=1;" parent="1" source="wEtQUpklAVbWecadVvYD-13" target="wEtQUpklAVbWecadVvYD-14" edge="1">
                    <mxGeometry relative="1" as="geometry"/>
                </mxCell>
                <mxCell id="wEtQUpklAVbWecadVvYD-13" value="Add A Computer Object" style="rounded=0;whiteSpace=wrap;html=1;" parent="1" vertex="1">
                    <mxGeometry x="425" y="40" width="120" height="60" as="geometry"/>
                </mxCell>
                <mxCell id="wEtQUpklAVbWecadVvYD-17" value="" style="edgeStyle=none;html=1;" parent="1" source="wEtQUpklAVbWecadVvYD-14" target="wEtQUpklAVbWecadVvYD-15" edge="1">
                    <mxGeometry relative="1" as="geometry"/>
                </mxCell>
                <mxCell id="wEtQUpklAVbWecadVvYD-14" value="Add a way to randomly generate computer choice" style="rounded=0;whiteSpace=wrap;html=1;" parent="1" vertex="1">
                    <mxGeometry x="425" y="130" width="120" height="60" as="geometry"/>
                </mxCell>
                <mxCell id="wEtQUpklAVbWecadVvYD-19" value="" style="edgeStyle=none;html=1;" parent="1" source="wEtQUpklAVbWecadVvYD-15" target="wEtQUpklAVbWecadVvYD-18" edge="1">
                    <mxGeometry relative="1" as="geometry"/>
                </mxCell>
                <mxCell id="wEtQUpklAVbWecadVvYD-15" value="Use if / else to determine if playing vs human or comp" style="rounded=0;whiteSpace=wrap;html=1;" parent="1" vertex="1">
                    <mxGeometry x="425" y="220" width="120" height="60" as="geometry"/>
                </mxCell>
                <mxCell id="wEtQUpklAVbWecadVvYD-18" value="User Choice Target Score" style="rounded=0;whiteSpace=wrap;html=1;" parent="1" vertex="1">
                    <mxGeometry x="425" y="310" width="120" height="60" as="geometry"/>
                </mxCell>
                <mxCell id="JoIHRpRE31UBzsZLkHug-1" value="SPRINT 4" style="text;html=1;strokeColor=none;fillColor=none;align=center;verticalAlign=middle;whiteSpace=wrap;rounded=0;" vertex="1" parent="1">
                    <mxGeometry x="580" width="60" height="30" as="geometry"/>
                </mxCell>
                <mxCell id="JoIHRpRE31UBzsZLkHug-5" value="" style="edgeStyle=none;html=1;" edge="1" parent="1" source="JoIHRpRE31UBzsZLkHug-2" target="JoIHRpRE31UBzsZLkHug-3">
                    <mxGeometry relative="1" as="geometry"/>
                </mxCell>
                <mxCell id="JoIHRpRE31UBzsZLkHug-2" value="Final Score Display with Winner" style="rounded=0;whiteSpace=wrap;html=1;" vertex="1" parent="1">
                    <mxGeometry x="570" y="40" width="120" height="60" as="geometry"/>
                </mxCell>
                <mxCell id="JoIHRpRE31UBzsZLkHug-6" value="" style="edgeStyle=none;html=1;" edge="1" parent="1" source="JoIHRpRE31UBzsZLkHug-3" target="JoIHRpRE31UBzsZLkHug-4">
                    <mxGeometry relative="1" as="geometry"/>
                </mxCell>
                <mxCell id="JoIHRpRE31UBzsZLkHug-3" value="Validate User Inputs for r,p,s&amp;nbsp;" style="rounded=0;whiteSpace=wrap;html=1;" vertex="1" parent="1">
                    <mxGeometry x="570" y="130" width="120" height="60" as="geometry"/>
                </mxCell>
                <mxCell id="JoIHRpRE31UBzsZLkHug-8" value="" style="edgeStyle=none;html=1;" edge="1" parent="1" source="JoIHRpRE31UBzsZLkHug-4" target="JoIHRpRE31UBzsZLkHug-7">
                    <mxGeometry relative="1" as="geometry"/>
                </mxCell>
                <mxCell id="JoIHRpRE31UBzsZLkHug-4" value="Validate User Inputs for H. C" style="rounded=0;whiteSpace=wrap;html=1;" vertex="1" parent="1">
                    <mxGeometry x="570" y="220" width="120" height="60" as="geometry"/>
                </mxCell>
                <mxCell id="JoIHRpRE31UBzsZLkHug-7" value="Play Sound?" style="whiteSpace=wrap;html=1;rounded=0;" vertex="1" parent="1">
                    <mxGeometry x="570" y="310" width="120" height="60" as="geometry"/>
                </mxCell>
            </root>
        </mxGraphModel>
    </diagram>
    <diagram id="8r73ahV7EcQFrSGyVyMp" name="TruthTable">
        <mxGraphModel dx="997" dy="395" grid="1" gridSize="10" guides="1" tooltips="1" connect="1" arrows="1" fold="1" page="1" pageScale="1" pageWidth="850" pageHeight="1100" math="0" shadow="0">
            <root>
                <mxCell id="0"/>
                <mxCell id="1" parent="0"/>
                <mxCell id="Gc_QuxNHh0WRi3L_tCI--1" value="" style="shape=image;verticalLabelPosition=bottom;labelBackgroundColor=default;verticalAlign=top;aspect=fixed;imageAspect=0;image=data:image/png,iVBORw0KGgoAAAANSUhEUgAAArEAAAD2CAYAAADBGN/QAAAAAXNSR0IArs4c6QAAAARnQU1BAACxjwv8YQUAAAAJcEhZcwAAEnQAABJ0Ad5mH3gAABF8SURBVHhe7d0/bBvZnQfwH69Olyq4ggsc6QCGAwQpJaQLDpAWwSqNW3VSKTZGmkWKRZqDG7LZQAKuSOsmChYrAUG6hbhdksIwsCYLsjgEW1x16XlvyEdb8p81yRFlPvHzAZ5n3ozp4mE88+XwN28akyRqGI/H0Ww2c49lGT9gEzk31WP86jF+9WzL+P1bXgIAQDGEWAAAiiPEAgBQHCEWAIDiCLEAABRHiAUAoDhCLAAAxRFiAQAojhALAEBxhFgAAIojxAIAUBwhFgCA4jRGo9EkrwMAQBEakySvr2Q8Hkez2cw9lmX8gE3k3FSP8avH+NWzLeOnnAAAgOIIsQAAFEeIBQCgOEIsAADFEWIBACiOEAsAQHGEWAAWMuztRqPRuNmOL/Peucs4fuPvvPVXAG6BEAvA4na6MZhMoppifDK5iKOz/Wjs9mI43TmM3u5+xMV8/yQujiLO9gVZ4PYJsQCsaC+edHci+s/i62mKbcXJ1SRO96Y7p/aedCP9jXj+chZzAW6LEAvAyloPHuU1gLslxAKwsuHL53ntPQYvop8Wjx60Zn2AWyLEArCaYS8OOymiHn0eJ+/MqJdxvH82raN9cq3EAOA2CLEALK7fifZ85oF2J6I7iMn1IthrLo/34yx2ovvHk3AfFrhtQiwAi7sxO8Ekrt59CzYF2Ebsn6UAO7h6z11agHqEWABu1SzARhxdCLDA+gixANya6oUIswB7c6otgNsmxAJwSy7jafWgV1K94OD6W7sajd3omSoWuEVCLAALaZ1cxeTqhx7S2ovTa/WyN5vSAuB2CbEAABRHiAUAoDhCLAAAxRFiAQAoTmM0Gk3yOgAAFKExqR4brWE8Hkez2cw9lmX8gE3k3FSP8avH+NWzLeOnnAAAgOIIsQAAFEeIBQCgOEIsAADFEWIBACiOEAsAQHGEWABYxuVxNBqNaBxf5g0satjbnY3dvBnD5Tn+XhFiAWAhw+jtpvCwf5b7LKMKsO1ORHcwiWqK+snkIo7O9oWxhTn+3iTEAsAChr3D6PR3UggbRHcnb2RBl/G004+d7h/jpJU3xV48qQby7Dzt5UMcf28TYgFgAa2Tq5hMrq6FMBY2fBnP0+LRg5uD13rwKP15FudS7Ac5/t4mxAIA6zV4Ef3YiYft3J9rP0xbYTVCLAAAxRFiAQA2wXzmgVftWL3wDxBiAYD1mpYN9OPFIPfn3ldmsK32TvPMDfN2Gnt5F28TYgGA9Wo9iOoRrucvh7N+Nnw5fdwr3njeCxYixAIAa7YXB0cR/c5h9OY5dtiLw+m0W0/cbWQlQiwALOD126bakbJXRDVRv7rFhe2dTuLiqB+ddq73nL35IK7MGbUQx9/bGpOq6KKG8XgczWYz91iW8QM2kXNTPcavHuNXz7aMnzuxAAAUR4gFAKA4QiwAAMURYgEAKE5jNBrVerALAADumtkJPjLjB2wi56Z6jF89xq+ebRk/5QQAABRHiAUAoDhCLAAAxRFiAQAojhALAEBxhFgAAIqzlhA77O1Go9G42Y4v8943XB7/8H4ANsI7z+2N3egN81/gBy11beQdhtHbvT5+jr1tt747sTvdGEwmUU1DO5lcxNHZfjR2e+kQnMsH4/5Z7gOw+Y7i4tW5fRKDbkSn3QhZbEEfvDbyblVmaEcnro3f4HE8OzR22+yOygn24kl3J6L/LL7OR9uwdxid/k50B4OodgFQntbJ5ynWRpydS7HLe/vayPsM4kU/fQd4/Gm08pZ08MXV1cnrPlvnzmpiWw8e5bWZ1slV+iZ1FSeOPoDi7Txs5zWW8ea1kR/WfzHIa3CHIXb48nleA+C+uDzej7PYicefuiOxCtfGReW71lX5hVpYsrsJscNeHHb6EUefu/MKULSz2L/2YNJ+XPhVbVWujUuZ/oI76KavTP1pHbYwy/pCbL8T7fmJrt2J6A5icrqXdwJQptcPdg3ynTEPdS3BtbGeqg52+lDXPMweh8Nve60vxN54AnMSV75mAtwr1Z2xi6OUY3/vCfGFuTbejirMVgdfnIVnCrfXndXEAnD/7B2kINHvxFNBgrvWfhgmN9puQiwAq9t7Mp0m0d1Y1qp6MdKbc80fdqIfR3GgGmNrfbQQ+/rNJe2o6tpnTxxWffUtAOVoxaePzXXKmu2dxuDxs9f1xFV2mL744DRk2O3VmFRFOTWMx+NoNpu5x7KMH7CJnJvqMX71GL96tmX8lBMAAFAcIRYAgOIIsQAAFEeIBQCgOI3RaFTrwS4A7p9m85O8xkoaeclKGucHeY1VjX7ezWv3l9kJPjLjB2wmKawWw1eLEFvf5LM/5bX7SzkBAADFEWIBACiOEAsAQHGEWAAAiiPEAgBQHCEWAIDiCLEAABRHiAUAoDhCLAAAxRFiAQAojhALAEBxhFgAAIojxAIAUBwhFgCA4gixAAAUR4gFAKA4QiwAAMURYgEAKI4QCwBAcYRYAACKI8QCAFAcIRYAgOIIsQAAFEeIBQCgOEIsAADFEWIBACiOELtOl8fRaDSicXyZNyxm2Nudfe5G243eMP8FAD6KYS/S+fhaO847WEoaumljGd9HHJzfbH/Lu7aUELsWw+jtpuC5f5b7qziKi8kkJrkNuhGddiOWzMMA3JIqwLY7Ed1BpPPyrB2l07wgu7g0hMLrSv4V8dtvI353EHGe23+mzV9sd5AVYtdg2DuMTn8nnegG0d3JG2tqnXyeYm3E2bkUC/AxPE0BdqcbcdLKG5InqR8pyDozf1j1Y2IawqiGrGos40cR/5WC6y9yt/Kbn82W/5MC7pYSYtegdXKVvqFf3TjR3Zadh+28BsCdSQnseVo8ejDrzrVy3/2FD6suiZPUTqY9qE+ILcTl8X76sr8Tjz9dQzIG4IcNIvpp8dZ9hNS/pR/cYDn//L/Z8t9/NFtuISF2Y53F/quHuhqxHxdru7sLAJTk+4gvRhE//dnNEoMtI8RurNcPdg2qwtqzfQ91AQARX36b/vhxROc/Zv0tJcQWoKqxvThKOfb3vWlhPAB3LJcNvBjMuq+8r8wA1uXL84i/pAD7h19G/CRv21JCbCH2DlKK7XfiqbuxAHevFfEoLZ6/nHXnhrn/QKkXd2EaYNPydwJsRYgtxd6T6XRd7sYCfBz5XsLrF8+k5WGedmsvb4K1+eqbHGDfmGpriwmxa/D6jVvt6FS/M53t5/5xjbkEW/Hp45Ri+8/iaykW4M7tnca0tKvTjnQ+T60qIUgB9sqcUQupLl3zN3VV88VW5n0/Mn7I9xH//b+z1eoFBzfe3JXC7T9nu7ZNY1I9OVTDeDyOZrOZeyzL+AGbqYoWrMzw1dKo3khFLZPP/pTX7i93YgEAKI4QCwBAcYRYAACKI8QCAFCcxmg0qvVgFwD3zyf/mD8/ziomn53nNVbiwbjaxqNRXru/zE7wkRk/YBM1/vybvMYqhNiahNj66sW7IignAACgOEIsAADFEWIBACiOEAsAQHGEWAAAiiPEAgBQHCEWAIDiCLEAABRHiAUAoDhCLAAAxRFiAQAojhALAEBxhFgAAIojxAIAUBwhFgCA4gixAAAUR4gFAKA4QiwAAMURYgEAKI4QCwBAcYRYAACKI8QCAFAcIRYAgOIIsQAAFEeIBQCgOEIsAADFEWIBACiOELsmw95uNBqN1+34Mu/5sLc+u+TnAVijv/0j4uA84svv8wYWNexFuqZda8d5B0tJQzdt206IXYMqhLY7Ed3BJCaTql3E0dn+ckF0pxuD6WevfX63F8O8G4C79q+I36bw+sUo91lGFWBn18ZI17VZOzoTZJeRhlB4vUaIvXWX8bTTTxn0j3HSyptiL550dyLOztPeVeTP95/F11IswMfx1d8jvvtxxB9+FfHTvI2FPU0Bdqcb166Nka5t6Y8UZP3W+GHV5T8NYVRDVjWE2Ns3fBnP0+LRg2v/S5PWg0fpz7M4X/F/6uzzAHw0v/5lxHlqP8l9FpcS2OzaOOvOtXJ/1WvjNqlSxSS1k2mPihB72wYvoh878bCd+3Pth2nr6oYvq//+AFCgQaRrY7zj2hi1ro1sNyG2BMNeHHbSf/+jz2/8DAMAsK2E2E3V70R7PjNBroSfnO7lnQCsxXzmgVct9YGNJMTetmnZQD9eDHJ/7n1lBu9zY3aCSVy5BQuwfr/4ecT5wbWW+tSXywbevja+p8wAFiDE3rbWg6gewXr+8uY0ArOa1kfxxvNeAHD/pWvf7No4684Nc9+1kVUIsbduLw6OqmqAw+jNc2yuad3pPkl7AWD7zK6Nce3aGOnaOJt2y7WRVQixa7B3OomLo3502jdrWpUEABTsq29ynexfI75L/b98q252CXunka6Nka6NMXtbV1VCkALslTmjFlJl//mbuqr5Yivz/rbOUNaYVAWXNYzH42g2m7nHsowfsIkaf/5NXmMVk89SuGV1VTKjnnrxrgjuxAIAUBwhFgCA4gixAAAUR4gFAKA4jdFodP8rfwFYSvOTT/Iaq2hUL0pgZR6Mq288HuW1+8vsBB+Z8QM2UjUHEisTYusRYm+D2QkAAGDjCLEAABRHiAUAoDhCLAAAxRFiAQAojhALAEBxhFgAAIojxAIAUBwhFgCA4gixAAAUR4gFAKA4QiwAAMURYgEAKI4QCwBAcYRYAACKI8QCAFAcIRYAgOIIsQAAFEeIBQCgOEIsAADFEWIBACiOEAsAQHGEWAAAiiPEAgBQHCEWAIDiCLEAABRHiF2ny+NoNBrROL7MGxY1jN5u+lz12Wnbjd4w7wLgozlOrXGtVX2W9Ld/RBycR3z5fd7Aooa9dNylA+9V2/IDUIhdixxC989yfxnVZ9vRiW4MJpOYVG3wOJ4d9tIeAD6WlB+mJrldpFad5QXZRf0r4rcpvH4xyn2WUQXYdieiO0jHXzoAq3aUDsBtDrJC7BoMe4fR6e+kA20Q3Z28cWGDeNGP2Hn8abTylmidxNXVyes+AHfuJLXT2erUXmrVKf75tMcHffX3iO9+HPGHX0X8NG9jYU9TgN3ppuPwWhh4kvrVN6llf++9L4TYNWidXKVvSFc3DrRl9V+kr1oAcF/8+pcR56n9JPdZ3HD2ZenRg1l3rpX751uaYoXYjbOXvlml7/Zn+2phATZcP7VHs1VYn8HsWHvYnnVfSf2lf/C9R4TYDTS9kzvopgOzH522B7sANtG8FPFJXgJ3S4hd1XzmgVft+HZrUqo62OlDXfMwe8v/PgDvNJ95YN7ede6ttlUPdVUliZ5XuGY+88CrlvqwJkLsqvZOZzMHvGqn0yL/W1eF2YujtHK2tTUvAHdpPvvAvL15bq9OxfupVQG2etiLa37x84jzg2st9akvlw289bjM+8oMtoQQW4L2w62ueQHYFPMAW91aEGC5M61Z7fXzl7Pu3DD3H2zpzwFC7KapyhR2r88JO4zeYSd90zqKg7Xc6gVgEdV5eR5gr0+1BXfhIB14/U68fkYmLVM8mE67ta3xQIhdg2FvN9fJtqNT3eefzjSwYN3s3mkMHj+L9qta2/mLD9ZUrgDAQp7mZVUL+2bd7PxFCPyAr77JdbJ/jfgu9f/yrbrZJaR4EFV1Yaedjrl00KV4MK1pudrinwQak6qgs4bxeBzNZjP3WJbxAzZSdZVkZY2qHpSVTT5L4ZaaasW7IrgTCwBAcYRYAACKI8QCAFAcIRYAgOI0RqPR/a/8BWApzU8+yWuswoNd9Xiwq77xeJTX7i+zE3xkxg/YRM5N9Ri/eoxfPdsyfsoJAAAojhALAEBxhFgAAIojxAIAUBwhFgCA4gixAAAUR4gFAKA4QiwAAMURYgEAKI4QCwBAcYRYAACKI8QCAFAcIRYAgOIIsQAAFEeIBQCgOEIsAADFEWIBACiOEAsAQHGEWAAAiiPEAgBQHCEWAIDiCLEAABSnMRqNJnkdAACK0JgkeX0l4/E4ms1m7rEs4wdsIuemeoxfPcavnm0ZP+UEAAAUR4gFAKAwEf8PSzEgn9WIYWQAAAAASUVORK5CYII=;" parent="1" vertex="1">
                    <mxGeometry width="689" height="246" as="geometry"/>
                </mxCell>
            </root>
        </mxGraphModel>
    </diagram>
</mxfile>